# xmcd
#
# Track frame offsets:
#	150
#	12338
#	25739
#	39262
#	53597
#	65345
#	76885
#	90506
#	104642
#	116362
#	130861
#	143563
#	155794
#	170197
#	182714
#	197043
#	209600
#	220762
#	232528
#	244197
#	257648
#	267918
#	279970
#	292539
#	304700
#	315958
#
# Disc length: 4383 seconds
#
# Revision: 1
# Processed by: cddbd v1.5.2PL0 Copyright (c) Steve Scherf et al.
# Submitted via: EasyCDDAExtractor 12.0.0.1
#
DISCID=5a111d1a
DTITLE=Various Artist - Detroit Blues (Blues From The Motor City 1938-54) - D
DTITLE=isc C (1949-54)
DYEAR=2004
DGENRE=Blues
TTITLE0=Baby Boy Warren - My Special Friend Blues
TTITLE1=Baby Boy Warren - Nervy Woman Blues
TTITLE2=Baby Boy Warren - Lonesome Cabin Blues
TTITLE3=Baby Boy Warren - Don't Want No Skinny Woman
TTITLE4=Baby Boy Warren - Forgive Me Darling
TTITLE5=Baby Boy Warren - Please Don't Think I'm Nosey
TTITLE6=Baby Boy Warren - I Got Lucky
TTITLE7=Baby Boy Warren - Let's Renew Our Love
TTITLE8=Baby Boy Warren - Taxi Driver
TTITLE9=Baby Boy Warren - Bad Lover Blues
TTITLE10=Baby Boy Warren - Sanafee
TTITLE11=Baby Boy Warren - Hello Stranger
TTITLE12=Baby Boy Warren - Chicken
TTITLE13=Baby Boy Warren - Baby Boy Blues
TTITLE14=Baby Boy Warren - Chuck-A-Luck
TTITLE15=Baby Boy Warren - Mattie Mae
TTITLE16=Baby Boy Warren - Santa Fe
TTITLE17=Baby Boy Warren - Somebody Put Bad Luck On Me
TTITLE18=Baby Boy Warren - Stop Breakin' Down
TTITLE19=Eddie Kirkland - It's Time For Lovin' To Be Done
TTITLE20=Eddie Kirkland - That's All Right
TTITLE21=Eddie Kirkland - Please Don't Think I'm Nosey
TTITLE22=Eddie Kirkland - No Shoes
TTITLE23=Eddie Kirkland - No Shoes (Alt.Tk)
TTITLE24=Eddie Kirkland - Mistreated Woman
TTITLE25=Eddie Kirkland - Time For My Lovin' To Be Done
EXTD=
EXTT0=
EXTT1=
EXTT2=
EXTT3=
EXTT4=
EXTT5=
EXTT6=
EXTT7=
EXTT8=
EXTT9=
EXTT10=
EXTT11=
EXTT12=
EXTT13=
EXTT14=
EXTT15=
EXTT16=
EXTT17=
EXTT18=
EXTT19=
EXTT20=
EXTT21=
EXTT22=
EXTT23=
EXTT24=
EXTT25=
PLAYORDER=
